# xmcd CD database file
#
# Track frame offsets:
#	225
#	17441
#	27303
#	41199
#	54489
#	71658
#	84596
#	103750
#
# Disc length: 1572 seconds
#
# Revision: 0
# Processed by: cddbd v1.5.2PL0 Copyright (c) Steve Scherf et al.
# Submitted via: CDex 1.51
#
DISCID=65062108
DTITLE=Duety milosne - ona i on 2
DYEAR=2006
DGENRE=Jazz
TTITLE0=Pierwszy znak
TTITLE1=Samba sikoreczka
TTITLE2=Daj mi te noc
TTITLE3=Baw mnie
TTITLE4=Kocham cie, kochanie moje
TTITLE5=Bo we mnie jest sex
TTITLE6=Alabama
TTITLE7=Zakochani sa wsrod nas
EXTD=YEAR: 2006
EXTT0=
EXTT1=
EXTT2=
EXTT3=
EXTT4=
EXTT5=
EXTT6=
EXTT7=
PLAYORDER=
